<?xml version="1.0" encoding="utf-8"?>
<!-- Generator: Adobe Illustrator 23.0.3, SVG Export Plug-In . SVG Version: 6.00 Build 0)  -->
<svg version="1.1" id="Layer_1" xmlns="http://www.w3.org/2000/svg" xmlns:xlink="http://www.w3.org/1999/xlink" x="0px" y="0px"
	 viewBox="0 0 841.9 595.3" style="enable-background:new 0 0 841.9 595.3;" xml:space="preserve">
<style type="text/css">
	.st0{fill:#FFFFFF;}
</style>
<rect x="-0.3" y="2104.1" width="842.4" height="594.2"/>
<rect x="-0.3" y="1416.1" width="842.4" height="594.2"/>
<rect x="-0.3" y="704.1" width="842.4" height="594.2"/>
<g>
	<polygon class="st0" points="340.8,328.9 344.6,312.3 401.9,312.3 408.6,283 351.3,283 355.1,266.4 417.6,266.4 425.1,233.8 
		323.3,233.8 293.7,361.4 395.8,361.4 403.3,328.9 	"/>
	<polygon class="st0" points="410.7,361.4 450.1,361.4 459.2,321.6 516.1,321.6 523.8,287.9 467,287.9 471.6,267.6 535.9,267.6 
		543.6,233.8 440,233.8 	"/>
	<polygon class="st0" points="641.6,233.8 604.3,283.5 589.6,233.8 550.6,233.8 577.6,322.8 568.7,361.4 609.8,361.4 619,322.6 
		688.6,233.8 	"/>
	<path class="st0" d="M278.7,248c-10.9-9.5-25.5-14.2-43.6-14.2h-52.1l31.5,32.8h13.5c8.2,0,14.7,2.1,19.2,6.3
		c4.6,4.2,6.9,10,6.9,17.3c0,10.5-4.3,19.4-12.9,26.7c-8.6,7.2-18.5,10.9-29.7,10.9h-11l14.1-61.1h-39.4l-21.9,94.8H214
		c23.1,0,42.4-7.3,57.9-21.9c15.5-14.6,23.2-32.1,23.2-52.4C295.1,270.5,289.6,257.5,278.7,248"/>
	<polygon class="st0" points="340.8,328.9 344.6,312.3 401.9,312.3 408.6,283 351.3,283 355.1,266.4 417.6,266.4 425.1,233.8 
		323.3,233.8 293.7,361.4 395.8,361.4 403.3,328.9 	"/>
	<polygon class="st0" points="410.7,361.4 450.1,361.4 459.2,321.6 516.1,321.6 523.8,287.9 467,287.9 471.6,267.6 535.9,267.6 
		543.6,233.8 440,233.8 	"/>
	<path class="st0" d="M278.7,248c-10.9-9.5-25.5-14.2-43.6-14.2h-52.1l31.5,32.8h13.5c8.2,0,14.7,2.1,19.2,6.3
		c4.6,4.2,6.9,10,6.9,17.3c0,10.5-4.3,19.4-12.9,26.7c-8.6,7.2-18.5,10.9-29.7,10.9h-11l14.1-61.1h-39.4l-21.9,94.8H214
		c23.1,0,42.4-7.3,57.9-21.9c15.5-14.6,23.2-32.1,23.2-52.4C295.1,270.5,289.6,257.5,278.7,248"/>
</g>
<path class="st0" d="M421,802c-109.2,0-197.6,89.4-197.6,199.6c0,110.2,88.5,199.6,197.6,199.6c109.1,0,197.6-89.4,197.6-199.6
	C618.5,891.4,530.1,802.1,421,802 M547.9,1129.8c-32.5,32.8-77.3,53.1-126.9,53.1c-49.6,0-94.4-20.3-127-53.1
	c-32.5-32.8-52.6-78.1-52.6-128.2c0-50.1,20.1-95.4,52.6-128.2c32.5-32.8,77.4-53.1,127-53.1c49.6,0,94.4,20.3,126.9,53.1
	c32.5,32.8,52.6,78.1,52.6,128.2C600.5,1051.7,580.4,1097,547.9,1129.8 M501,1002.8h-21.9l-26.8,34.4L383.8,968c0,0-0.1-0.1-0.1-0.2
	c-0.2-0.2-0.4-0.4-0.6-0.6c-4.2-4.7-6.7-10.8-6.8-17.7c0-14.6,11.7-26.3,26.1-26.4c14.4,0,26,11.8,26.1,26.4
	c0,9.7-5.3,18.2-13.1,22.8l12.5,12.6c10.8-7.9,17.8-20.8,17.8-35.3c0-24.2-19.4-43.8-43.3-43.8c-23.9,0-43.3,19.6-43.3,43.8
	c0,11.3,4.2,21.6,11.2,29.4c0.3,0.3,0.6,0.7,0.9,1c0.1,0.1,0.2,0.2,0.3,0.3l10.2,10.4c-22.7,7-39.4,27.2-39.5,51.6
	c0.1,30.5,26,54.2,57.1,54.3c3.4,0,6.8-0.3,10.1-0.8c13.8-2.3,25.9-9.3,34.4-19.4c0.3-0.4,0.6-0.9,1-1.3l0,0l9-11.5l32.7,33h24.4
	l-46.3-46.8L501,1002.8z M432.8,1062.4L432.8,1062.4c-0.7,0.9-1.3,1.7-2,2.5c-5.8,6.9-14.4,11.9-24.2,13.5c-2,0.3-4,0.5-6,0.6
	c-11.1-0.1-21-4.4-28.2-11.1c-7.2-6.8-11.5-15.9-11.5-26c-0.1-16.8,12.3-31.5,29.7-35.8c1-0.2,2.1-0.4,3.2-0.5
	c0.9-0.1,1.8-0.1,2.7-0.2l45.2,45.6L432.8,1062.4z"/>
<g>
	<path class="st0" d="M728.7,1756.4c0,0,13.8,25.1,47.3,18.6c0,0-5.7-5.2-15-18.6c-5.2-7.1-24.2-35.9-24.2-35.9
		c6.3-2.8,11.4-6.7,15.1-11.9c3.7-5.2,5.6-11.8,5.6-19.7v-0.3c0-10.1-3-18.1-8.9-24c-3.4-3.5-7.7-6.3-13.1-8.3
		c-5.4-2-12-2.9-19.7-2.9h-47.7v103.1H696v-31.2h12.2L728.7,1756.4L728.7,1756.4z M729.4,1690.6c0,3.7-1.3,6.7-3.9,8.9
		c-2.6,2.2-6.3,3.3-11.1,3.3H696v-24.8h18.3c4.7,0,8.4,1,11.1,3c2.7,2,4,5.1,4,9.2L729.4,1690.6L729.4,1690.6z M159.1,1666.8
		c-4.8-4.8-10.5-8.6-17.1-11.4c-6.6-2.8-13.8-4.2-21.6-4.2c-7.8,0-15,1.4-21.6,4.2c-6.6,2.8-12.4,6.6-17.3,11.5
		c-4.9,4.9-8.7,10.6-11.4,17.1c-2.7,6.5-4.1,13.5-4.1,20.8v0.3c0,7.4,1.4,14.3,4.1,20.8c2.7,6.5,6.5,12.1,11.3,16.9
		c4.8,4.8,10.5,8.6,17.1,11.4c6.6,2.8,13.8,4.2,21.6,4.2c7.8,0,15-1.4,21.6-4.2c6.6-2.8,12.4-6.6,17.3-11.5
		c4.9-4.9,8.7-10.6,11.4-17.1c2.7-6.5,4.1-13.5,4.1-20.8v-0.3c0-7.4-1.4-14.3-4.1-20.8C167.7,1677.2,163.9,1671.6,159.1,1666.8
		L159.1,1666.8z M146,1705.1c0,3.7-0.6,7.3-1.9,10.6c-1.3,3.3-3,6.3-5.2,8.8c-2.2,2.5-4.9,4.5-8.1,6c-3.2,1.5-6.7,2.2-10.5,2.2
		c-3.9,0-7.4-0.8-10.5-2.3c-3.2-1.5-5.9-3.6-8.2-6.1c-2.3-2.6-4-5.5-5.3-8.8c-1.3-3.3-1.9-6.9-1.9-10.6v-0.3c0-3.7,0.6-7.3,1.8-10.6
		c1.2-3.3,2.9-6.3,5.2-8.8c2.3-2.5,5-4.5,8.1-6c3.1-1.5,6.6-2.2,10.5-2.2c3.8,0,7.4,0.8,10.5,2.3c3.2,1.5,5.9,3.6,8.2,6.1
		c2.3,2.6,4.1,5.5,5.3,8.8c1.2,3.3,1.9,6.9,1.9,10.6L146,1705.1L146,1705.1z M237.4,1653.2h-27.9v103.1h76.8v-25h-48.8L237.4,1653.2
		L237.4,1653.2z M322.8,1756.3h28.1v-103.1h-28.1V1756.3z M444.1,1718.5l-22.9-65.3H390l40.9,103.9h25.9l40.9-103.9H467
		L444.1,1718.5L444.1,1718.5z M564.8,1715.7h48.4v-22.5h-48.4v-15.6h53.4v-24.3h-80.9v103.1H619V1732h-54.1V1715.7L564.8,1715.7z"/>
</g>
<g>
	<polygon class="st0" points="337.3,2384.4 326.8,2417.8 348.2,2417.8 	"/>
	<path class="st0" d="M368.4,2393.6h25.4v-7.6c0,0-1.1-13.4,13.6-13.4s13.6,12.5,13.6,12.5v2.5c0,2.3-1.2,4.5-3.1,5.8l-39.2,25.8
		L368.4,2393.6z"/>
	<polygon class="st0" points="436.6,2410.5 436.6,2429 406.1,2429 	"/>
	<path class="st0" d="M467.1,2376.2v53.4h18.5c0,0,19.4-7.1,19.4-26.3s-19.8-27.2-19.8-27.2H467.1z"/>
	<path class="st0" d="M420.9,2199.3c13.7,0,27.5,1.4,40.8,4.1c13,2.7,25.8,6.6,38,11.8c12,5.1,23.6,11.3,34.4,18.7
		c10.7,7.2,20.8,15.6,30,24.7c9.2,9.2,17.5,19.2,24.7,30c7.3,10.8,13.6,22.4,18.7,34.4c5.2,12.2,9.1,25,11.8,38
		c2.7,13.3,4.1,27.1,4.1,40.8c0,13.7-1.4,27.5-4.1,40.8c-2.7,13-6.6,25.8-11.8,38c-5.1,12-11.3,23.6-18.7,34.4
		c-7.2,10.7-15.6,20.8-24.7,30c-9.2,9.2-19.2,17.5-30,24.7c-10.8,7.3-22.4,13.6-34.4,18.7c-12.2,5.2-25,9.1-38,11.8
		c-13.3,2.7-27.1,4.1-40.8,4.1c-13.7,0-27.5-1.4-40.8-4.1c-13-2.7-25.8-6.6-38-11.8c-12-5.1-23.6-11.3-34.4-18.7
		c-10.7-7.2-20.8-15.6-30-24.7c-9.2-9.2-17.5-19.2-24.7-30c-7.3-10.8-13.6-22.4-18.7-34.4c-5.2-12.2-9.1-25-11.8-38
		c-2.7-13.3-4.1-27.1-4.1-40.8c0-13.7,1.4-27.5,4.1-40.8c2.7-13,6.6-25.8,11.8-38c5.1-12,11.3-23.6,18.7-34.4
		c7.2-10.7,15.6-20.8,24.7-30c9.2-9.2,19.2-17.5,30-24.7c10.8-7.3,22.4-13.6,34.4-18.7c12.2-5.2,25-9.1,38-11.8
		C393.5,2200.6,407.2,2199.3,420.9,2199.3 M420.9,2187.9c-118,0-213.7,95.7-213.7,213.7c0,118,95.7,213.7,213.7,213.7
		s213.7-95.7,213.7-213.7C634.7,2283.6,539,2187.9,420.9,2187.9L420.9,2187.9z"/>
</g>
</svg>
